<svg viewBox="0 0 200 200" xmlns="http://www.w3.org/2000/svg">
  <!-- Gear + Circuit Logo: Dark Mode Variant -->
  <g id="gear">
    <circle cx="100" cy="100" r="75" fill="none" stroke="#F5F7FA" stroke-width="3"/>
    <polygon points="100,30 130,40 140,70 130,100 140,130 100,170 70,160 60,130 70,100 60,70 100,30" 
             fill="none" stroke="#F5F7FA" stroke-width="2.5" stroke-linejoin="round"/>
  </g>
  <g id="circuits" stroke="#99FF33" stroke-width="2" fill="none" stroke-linecap="round">
    <path d="M 100 30 L 100 15 L 85 10" />
    <path d="M 130 70 L 155 50 L 170 55" />
    <path d="M 140 130 L 160 155 L 165 170" />
    <path d="M 60 160 L 30 180 L 20 175" />
    <path d="M 60 70 L 35 50 L 25 60" />
  </g>
  <g id="nodes" fill="#66CCFF" opacity="0.85">
    <circle cx="100" cy="15" r="3"/>
    <circle cx="170" cy="55" r="3"/>
    <circle cx="165" cy="170" r="3"/>
    <circle cx="20" cy="175" r="3"/>
    <circle cx="25" cy="60" r="3"/>
  </g>
  <text x="100" y="195" text-anchor="middle" font-size="8" fill="#F5F7FA">
    Gear + Circuit Concept (Dark Mode)
  </text>
</svg>
